<mxfile host="65bd71144e" scale="6" border="0">
    <diagram id="C6WBfGUmeyje4vuCExdz" name="Page-1">
        <mxGraphModel dx="1391" dy="-321" grid="1" gridSize="10" guides="1" tooltips="1" connect="1" arrows="1" fold="1" page="1" pageScale="1" pageWidth="850" pageHeight="1100" background="#FFFFFF" math="1" shadow="0">
            <root>
                <mxCell id="0"/>
                <mxCell id="1" parent="0"/>
                <mxCell id="2" value="Species A" style="rounded=0;whiteSpace=wrap;html=1;fillColor=#d5e8d4;strokeColor=#82b366;" parent="1" vertex="1">
                    <mxGeometry x="95" y="1290" width="70" height="30" as="geometry"/>
                </mxCell>
                <mxCell id="3" value="Species B" style="rounded=0;whiteSpace=wrap;html=1;fillColor=#d5e8d4;strokeColor=#82b366;" parent="1" vertex="1">
                    <mxGeometry x="95" y="1320" width="70" height="30" as="geometry"/>
                </mxCell>
                <mxCell id="4" value="Species C" style="rounded=0;whiteSpace=wrap;html=1;fillColor=#d5e8d4;strokeColor=#82b366;" parent="1" vertex="1">
                    <mxGeometry x="95" y="1350" width="70" height="30" as="geometry"/>
                </mxCell>
                <mxCell id="5" value="Species C" style="rounded=0;whiteSpace=wrap;html=1;fillColor=#f8cecc;strokeColor=#b85450;" parent="1" vertex="1">
                    <mxGeometry x="95" y="1380" width="70" height="30" as="geometry"/>
                </mxCell>
                <mxCell id="6" value="Species A,B,C" style="rounded=0;whiteSpace=wrap;html=1;fillColor=#d5e8d4;strokeColor=#82b366;" parent="1" vertex="1">
                    <mxGeometry x="270" y="1290" width="70" height="90" as="geometry"/>
                </mxCell>
                <mxCell id="7" value="Species D" style="rounded=0;whiteSpace=wrap;html=1;fillColor=#f8cecc;strokeColor=#b85450;" parent="1" vertex="1">
                    <mxGeometry x="270" y="1380" width="70" height="30" as="geometry"/>
                </mxCell>
                <mxCell id="8" value="A as A" style="rounded=0;whiteSpace=wrap;html=1;fillColor=#d5e8d4;strokeColor=#82b366;" parent="1" vertex="1">
                    <mxGeometry x="-245" y="1240" width="40" height="40" as="geometry"/>
                </mxCell>
                <mxCell id="9" value="" style="rounded=0;whiteSpace=wrap;html=1;" parent="1" vertex="1">
                    <mxGeometry x="-205" y="1240" width="40" height="40" as="geometry"/>
                </mxCell>
                <mxCell id="10" value="" style="rounded=0;whiteSpace=wrap;html=1;" parent="1" vertex="1">
                    <mxGeometry x="-165" y="1240" width="40" height="40" as="geometry"/>
                </mxCell>
                <mxCell id="11" value="" style="rounded=0;whiteSpace=wrap;html=1;fillColor=#f5f5f5;fontColor=#333333;strokeColor=#666666;" parent="1" vertex="1">
                    <mxGeometry x="-125" y="1240" width="40" height="40" as="geometry"/>
                </mxCell>
                <mxCell id="12" value="" style="rounded=0;whiteSpace=wrap;html=1;" parent="1" vertex="1">
                    <mxGeometry x="-245" y="1280" width="40" height="40" as="geometry"/>
                </mxCell>
                <mxCell id="13" value="B as B" style="rounded=0;whiteSpace=wrap;html=1;fillColor=#d5e8d4;strokeColor=#82b366;" parent="1" vertex="1">
                    <mxGeometry x="-205" y="1280" width="40" height="40" as="geometry"/>
                </mxCell>
                <mxCell id="14" value="" style="rounded=0;whiteSpace=wrap;html=1;" parent="1" vertex="1">
                    <mxGeometry x="-165" y="1280" width="40" height="40" as="geometry"/>
                </mxCell>
                <mxCell id="15" value="" style="rounded=0;whiteSpace=wrap;html=1;fillColor=#f5f5f5;fontColor=#333333;strokeColor=#666666;" parent="1" vertex="1">
                    <mxGeometry x="-125" y="1280" width="40" height="40" as="geometry"/>
                </mxCell>
                <mxCell id="16" value="" style="rounded=0;whiteSpace=wrap;html=1;" parent="1" vertex="1">
                    <mxGeometry x="-245" y="1320" width="40" height="40" as="geometry"/>
                </mxCell>
                <mxCell id="17" value="" style="rounded=0;whiteSpace=wrap;html=1;" parent="1" vertex="1">
                    <mxGeometry x="-205" y="1320" width="40" height="40" as="geometry"/>
                </mxCell>
                <mxCell id="18" value="C as C" style="rounded=0;whiteSpace=wrap;html=1;fillColor=#d5e8d4;strokeColor=#82b366;" parent="1" vertex="1">
                    <mxGeometry x="-165" y="1320" width="40" height="40" as="geometry"/>
                </mxCell>
                <mxCell id="19" value="" style="rounded=0;whiteSpace=wrap;html=1;fillColor=#f5f5f5;fontColor=#333333;strokeColor=#666666;" parent="1" vertex="1">
                    <mxGeometry x="-125" y="1320" width="40" height="40" as="geometry"/>
                </mxCell>
                <mxCell id="20" value="" style="rounded=0;whiteSpace=wrap;html=1;fillColor=#f5f5f5;fontColor=#333333;strokeColor=#666666;" parent="1" vertex="1">
                    <mxGeometry x="-245" y="1360" width="40" height="40" as="geometry"/>
                </mxCell>
                <mxCell id="21" value="" style="rounded=0;whiteSpace=wrap;html=1;fillColor=#f5f5f5;fontColor=#333333;strokeColor=#666666;" parent="1" vertex="1">
                    <mxGeometry x="-205" y="1360" width="40" height="40" as="geometry"/>
                </mxCell>
                <mxCell id="22" value="D as C" style="rounded=0;whiteSpace=wrap;html=1;fillColor=#f8cecc;strokeColor=#b85450;" parent="1" vertex="1">
                    <mxGeometry x="-165" y="1360" width="40" height="40" as="geometry"/>
                </mxCell>
                <mxCell id="23" value="" style="rounded=0;whiteSpace=wrap;html=1;fillColor=#f5f5f5;fontColor=#333333;strokeColor=#666666;" parent="1" vertex="1">
                    <mxGeometry x="-125" y="1360" width="40" height="40" as="geometry"/>
                </mxCell>
                <mxCell id="24" value="True classes" style="text;html=1;strokeColor=none;fillColor=none;align=center;verticalAlign=middle;whiteSpace=wrap;rounded=0;" parent="1" vertex="1">
                    <mxGeometry x="-320" y="1310" width="60" height="30" as="geometry"/>
                </mxCell>
                <mxCell id="25" value="Classes model knows" style="text;html=1;strokeColor=none;fillColor=none;align=center;verticalAlign=middle;whiteSpace=wrap;rounded=0;" parent="1" vertex="1">
                    <mxGeometry x="-215" y="1440" width="60" height="30" as="geometry"/>
                </mxCell>
                <mxCell id="26" value="" style="endArrow=none;html=1;" parent="1" edge="1">
                    <mxGeometry width="50" height="50" relative="1" as="geometry">
                        <mxPoint x="-245" y="1420" as="sourcePoint"/>
                        <mxPoint x="-125" y="1420" as="targetPoint"/>
                    </mxGeometry>
                </mxCell>
                <mxCell id="27" style="edgeStyle=none;html=1;" parent="1" edge="1">
                    <mxGeometry relative="1" as="geometry">
                        <mxPoint x="-65" y="1430" as="sourcePoint"/>
                        <mxPoint x="-85" y="1410" as="targetPoint"/>
                    </mxGeometry>
                </mxCell>
                <mxCell id="28" value="Classes model does not know and can't output" style="text;html=1;strokeColor=none;fillColor=none;align=center;verticalAlign=middle;whiteSpace=wrap;rounded=0;" parent="1" vertex="1">
                    <mxGeometry x="-65" y="1440" width="85" height="30" as="geometry"/>
                </mxCell>
                <mxCell id="29" value="Image classifications" style="text;html=1;strokeColor=none;fillColor=none;align=center;verticalAlign=middle;whiteSpace=wrap;rounded=0;" parent="1" vertex="1">
                    <mxGeometry x="115" y="1250" width="60" height="30" as="geometry"/>
                </mxCell>
                <mxCell id="30" value="DNA" style="text;html=1;strokeColor=none;fillColor=none;align=center;verticalAlign=middle;whiteSpace=wrap;rounded=0;" parent="1" vertex="1">
                    <mxGeometry x="270" y="1250" width="60" height="30" as="geometry"/>
                </mxCell>
                <mxCell id="31" value="1" style="rounded=0;whiteSpace=wrap;html=1;" parent="1" vertex="1">
                    <mxGeometry x="65" y="1290" width="30" height="30" as="geometry"/>
                </mxCell>
                <mxCell id="32" value="2" style="rounded=0;whiteSpace=wrap;html=1;" parent="1" vertex="1">
                    <mxGeometry x="65" y="1320" width="30" height="30" as="geometry"/>
                </mxCell>
                <mxCell id="33" value="3" style="rounded=0;whiteSpace=wrap;html=1;" parent="1" vertex="1">
                    <mxGeometry x="65" y="1350" width="30" height="30" as="geometry"/>
                </mxCell>
                <mxCell id="34" value="4" style="rounded=0;whiteSpace=wrap;html=1;" parent="1" vertex="1">
                    <mxGeometry x="65" y="1380" width="30" height="30" as="geometry"/>
                </mxCell>
                <mxCell id="35" value="Bulk" style="rounded=0;whiteSpace=wrap;html=1;" parent="1" vertex="1">
                    <mxGeometry x="240" y="1290" width="30" height="120" as="geometry"/>
                </mxCell>
                <mxCell id="36" value="Sample" style="text;html=1;strokeColor=none;fillColor=none;align=center;verticalAlign=middle;whiteSpace=wrap;rounded=0;" parent="1" vertex="1">
                    <mxGeometry x="35" y="1260" width="60" height="30" as="geometry"/>
                </mxCell>
                <mxCell id="37" value="Sample" style="text;html=1;strokeColor=none;fillColor=none;align=center;verticalAlign=middle;whiteSpace=wrap;rounded=0;" parent="1" vertex="1">
                    <mxGeometry x="210" y="1260" width="60" height="30" as="geometry"/>
                </mxCell>
                <mxCell id="38" value="0.99" style="rounded=0;whiteSpace=wrap;html=1;" parent="1" vertex="1">
                    <mxGeometry x="460" y="1310" width="40" height="40" as="geometry"/>
                </mxCell>
                <mxCell id="39" value="0.005" style="rounded=0;whiteSpace=wrap;html=1;" parent="1" vertex="1">
                    <mxGeometry x="500" y="1310" width="40" height="40" as="geometry"/>
                </mxCell>
                <mxCell id="40" value="0.005" style="rounded=0;whiteSpace=wrap;html=1;" parent="1" vertex="1">
                    <mxGeometry x="540" y="1310" width="40" height="40" as="geometry"/>
                </mxCell>
                <mxCell id="41" value="A" style="text;html=1;strokeColor=none;fillColor=none;align=center;verticalAlign=middle;whiteSpace=wrap;rounded=0;" parent="1" vertex="1">
                    <mxGeometry x="460" y="1270" width="40" height="40" as="geometry"/>
                </mxCell>
                <mxCell id="42" value="B" style="text;html=1;strokeColor=none;fillColor=none;align=center;verticalAlign=middle;whiteSpace=wrap;rounded=0;" parent="1" vertex="1">
                    <mxGeometry x="500" y="1270" width="40" height="40" as="geometry"/>
                </mxCell>
                <mxCell id="43" value="C" style="text;html=1;strokeColor=none;fillColor=none;align=center;verticalAlign=middle;whiteSpace=wrap;rounded=0;" parent="1" vertex="1">
                    <mxGeometry x="540" y="1270" width="40" height="40" as="geometry"/>
                </mxCell>
                <mxCell id="44" value="1" style="text;html=1;strokeColor=none;fillColor=none;align=center;verticalAlign=middle;whiteSpace=wrap;rounded=0;" parent="1" vertex="1">
                    <mxGeometry x="420" y="1310" width="40" height="40" as="geometry"/>
                </mxCell>
                <mxCell id="45" value="0.1" style="rounded=0;whiteSpace=wrap;html=1;" parent="1" vertex="1">
                    <mxGeometry x="460" y="1350" width="40" height="40" as="geometry"/>
                </mxCell>
                <mxCell id="46" value="0.8" style="rounded=0;whiteSpace=wrap;html=1;" parent="1" vertex="1">
                    <mxGeometry x="500" y="1350" width="40" height="40" as="geometry"/>
                </mxCell>
                <mxCell id="47" value="0.1" style="rounded=0;whiteSpace=wrap;html=1;" parent="1" vertex="1">
                    <mxGeometry x="540" y="1350" width="40" height="40" as="geometry"/>
                </mxCell>
                <mxCell id="48" value="2" style="text;html=1;strokeColor=none;fillColor=none;align=center;verticalAlign=middle;whiteSpace=wrap;rounded=0;" parent="1" vertex="1">
                    <mxGeometry x="420" y="1350" width="40" height="40" as="geometry"/>
                </mxCell>
                <mxCell id="49" value="0.05" style="rounded=0;whiteSpace=wrap;html=1;" parent="1" vertex="1">
                    <mxGeometry x="460" y="1390" width="40" height="40" as="geometry"/>
                </mxCell>
                <mxCell id="50" value="0.05" style="rounded=0;whiteSpace=wrap;html=1;" parent="1" vertex="1">
                    <mxGeometry x="500" y="1390" width="40" height="40" as="geometry"/>
                </mxCell>
                <mxCell id="51" value="0.9" style="rounded=0;whiteSpace=wrap;html=1;" parent="1" vertex="1">
                    <mxGeometry x="540" y="1390" width="40" height="40" as="geometry"/>
                </mxCell>
                <mxCell id="52" value="3" style="text;html=1;strokeColor=none;fillColor=none;align=center;verticalAlign=middle;whiteSpace=wrap;rounded=0;" parent="1" vertex="1">
                    <mxGeometry x="420" y="1390" width="40" height="40" as="geometry"/>
                </mxCell>
                <mxCell id="53" value="0.3" style="rounded=0;whiteSpace=wrap;html=1;" parent="1" vertex="1">
                    <mxGeometry x="460" y="1430" width="40" height="40" as="geometry"/>
                </mxCell>
                <mxCell id="54" value="0.1" style="rounded=0;whiteSpace=wrap;html=1;" parent="1" vertex="1">
                    <mxGeometry x="500" y="1430" width="40" height="40" as="geometry"/>
                </mxCell>
                <mxCell id="55" value="0.6" style="rounded=0;whiteSpace=wrap;html=1;" parent="1" vertex="1">
                    <mxGeometry x="540" y="1430" width="40" height="40" as="geometry"/>
                </mxCell>
                <mxCell id="56" value="4" style="text;html=1;strokeColor=none;fillColor=none;align=center;verticalAlign=middle;whiteSpace=wrap;rounded=0;" parent="1" vertex="1">
                    <mxGeometry x="420" y="1430" width="40" height="40" as="geometry"/>
                </mxCell>
                <mxCell id="57" value="1: Starting ground truth: There are samples from an unknown class in the test set" style="text;html=1;strokeColor=none;fillColor=none;align=left;verticalAlign=middle;whiteSpace=wrap;rounded=0;" parent="1" vertex="1">
                    <mxGeometry x="-245" y="1190" width="160" height="30" as="geometry"/>
                </mxCell>
                <mxCell id="58" value="2: After sampling we know what images belong to which sample, but the same can't be said for the bulk DNA sample - only what species DNA it contains" style="text;html=1;strokeColor=none;fillColor=none;align=left;verticalAlign=middle;whiteSpace=wrap;rounded=0;" parent="1" vertex="1">
                    <mxGeometry x="110" y="1190" width="200" height="40" as="geometry"/>
                </mxCell>
                <mxCell id="59" value="3: When an unknown taxon is present in the DNA bulk sample, we look at the image sample scores and calculate the entropy. We choose the sample with the highest entropy as the candidate for the out-of-distribution images" style="text;html=1;strokeColor=none;fillColor=none;align=left;verticalAlign=middle;whiteSpace=wrap;rounded=0;" parent="1" vertex="1">
                    <mxGeometry x="440" y="1200" width="200" height="40" as="geometry"/>
                </mxCell>
                <mxCell id="60" value="entropy" style="text;html=1;strokeColor=none;fillColor=none;align=center;verticalAlign=middle;whiteSpace=wrap;rounded=0;" parent="1" vertex="1">
                    <mxGeometry x="600" y="1270" width="40" height="40" as="geometry"/>
                </mxCell>
                <mxCell id="61" value="0.06" style="rounded=0;whiteSpace=wrap;html=1;" parent="1" vertex="1">
                    <mxGeometry x="600" y="1310" width="40" height="40" as="geometry"/>
                </mxCell>
                <mxCell id="62" value="0.63" style="rounded=0;whiteSpace=wrap;html=1;" parent="1" vertex="1">
                    <mxGeometry x="600" y="1350" width="40" height="40" as="geometry"/>
                </mxCell>
                <mxCell id="63" value="0.39" style="rounded=0;whiteSpace=wrap;html=1;" parent="1" vertex="1">
                    <mxGeometry x="600" y="1390" width="40" height="40" as="geometry"/>
                </mxCell>
                <mxCell id="64" value="0.89" style="rounded=0;whiteSpace=wrap;html=1;fillColor=#f8cecc;strokeColor=#b85450;" parent="1" vertex="1">
                    <mxGeometry x="600" y="1430" width="40" height="40" as="geometry"/>
                </mxCell>
                <mxCell id="65" value="4: Image embeddings are calculated for each image, which are then used to calculate a embedding for each specimen, and for each species&lt;br&gt;&lt;br&gt;The species embeddings are calculated from the training data" style="text;html=1;strokeColor=none;fillColor=none;align=left;verticalAlign=middle;whiteSpace=wrap;rounded=0;" parent="1" vertex="1">
                    <mxGeometry x="-267.5" y="1560" width="245" height="90" as="geometry"/>
                </mxCell>
                <mxCell id="66" value="Specimen 1" style="rounded=0;whiteSpace=wrap;html=1;fillColor=#d5e8d4;strokeColor=#82b366;" parent="1" vertex="1">
                    <mxGeometry x="-320" y="1670" width="60" height="60" as="geometry"/>
                </mxCell>
                <mxCell id="67" value="Specimen 2" style="rounded=0;whiteSpace=wrap;html=1;fillColor=#ffe6cc;strokeColor=#d79b00;" parent="1" vertex="1">
                    <mxGeometry x="-320" y="1740" width="60" height="60" as="geometry"/>
                </mxCell>
                <mxCell id="68" style="edgeStyle=none;html=1;" parent="1" source="69" edge="1">
                    <mxGeometry relative="1" as="geometry">
                        <mxPoint x="-70" y="1680" as="targetPoint"/>
                    </mxGeometry>
                </mxCell>
                <mxCell id="69" value="img 1.1" style="rounded=0;whiteSpace=wrap;html=1;fillColor=#dae8fc;strokeColor=#6c8ebf;" parent="1" vertex="1">
                    <mxGeometry x="-260" y="1670" width="70" height="20" as="geometry"/>
                </mxCell>
                <mxCell id="70" style="edgeStyle=none;html=1;" parent="1" source="71" edge="1">
                    <mxGeometry relative="1" as="geometry">
                        <mxPoint x="-70" y="1700" as="targetPoint"/>
                    </mxGeometry>
                </mxCell>
                <mxCell id="71" value="img 1.2" style="rounded=0;whiteSpace=wrap;html=1;fillColor=#dae8fc;strokeColor=#6c8ebf;" parent="1" vertex="1">
                    <mxGeometry x="-260" y="1690" width="70" height="20" as="geometry"/>
                </mxCell>
                <mxCell id="72" style="edgeStyle=none;html=1;" parent="1" source="73" edge="1">
                    <mxGeometry relative="1" as="geometry">
                        <mxPoint x="-70" y="1720" as="targetPoint"/>
                    </mxGeometry>
                </mxCell>
                <mxCell id="73" value="img 1.3" style="rounded=0;whiteSpace=wrap;html=1;fillColor=#dae8fc;strokeColor=#6c8ebf;" parent="1" vertex="1">
                    <mxGeometry x="-260" y="1710" width="70" height="20" as="geometry"/>
                </mxCell>
                <mxCell id="74" style="edgeStyle=none;html=1;" parent="1" source="75" edge="1">
                    <mxGeometry relative="1" as="geometry">
                        <mxPoint x="-70" y="1750" as="targetPoint"/>
                    </mxGeometry>
                </mxCell>
                <mxCell id="75" value="img 2.1" style="rounded=0;whiteSpace=wrap;html=1;fillColor=#dae8fc;strokeColor=#6c8ebf;" parent="1" vertex="1">
                    <mxGeometry x="-260" y="1740" width="70" height="20" as="geometry"/>
                </mxCell>
                <mxCell id="76" style="edgeStyle=none;html=1;" parent="1" source="77" edge="1">
                    <mxGeometry relative="1" as="geometry">
                        <mxPoint x="-70" y="1770" as="targetPoint"/>
                    </mxGeometry>
                </mxCell>
                <mxCell id="77" value="img 2.2" style="rounded=0;whiteSpace=wrap;html=1;fillColor=#dae8fc;strokeColor=#6c8ebf;" parent="1" vertex="1">
                    <mxGeometry x="-260" y="1760" width="70" height="20" as="geometry"/>
                </mxCell>
                <mxCell id="78" style="edgeStyle=none;html=1;" parent="1" source="79" edge="1">
                    <mxGeometry relative="1" as="geometry">
                        <mxPoint x="-70" y="1790" as="targetPoint"/>
                    </mxGeometry>
                </mxCell>
                <mxCell id="79" value="img 2.3" style="rounded=0;whiteSpace=wrap;html=1;fillColor=#dae8fc;strokeColor=#6c8ebf;" parent="1" vertex="1">
                    <mxGeometry x="-260" y="1780" width="70" height="20" as="geometry"/>
                </mxCell>
                <mxCell id="80" value="Species A" style="rounded=0;whiteSpace=wrap;html=1;horizontal=0;fillColor=#a20025;fontColor=#ffffff;strokeColor=#6F0000;" parent="1" vertex="1">
                    <mxGeometry x="-350" y="1670" width="30" height="60" as="geometry"/>
                </mxCell>
                <mxCell id="81" value="Specimen 3" style="rounded=0;whiteSpace=wrap;html=1;fillColor=#fff2cc;strokeColor=#d6b656;" parent="1" vertex="1">
                    <mxGeometry x="-320" y="1810" width="60" height="60" as="geometry"/>
                </mxCell>
                <mxCell id="82" value="Specimen 4" style="rounded=0;whiteSpace=wrap;html=1;fillColor=#e1d5e7;strokeColor=#9673a6;" parent="1" vertex="1">
                    <mxGeometry x="-320" y="1870" width="60" height="60" as="geometry"/>
                </mxCell>
                <mxCell id="83" style="edgeStyle=none;html=1;" parent="1" source="84" edge="1">
                    <mxGeometry relative="1" as="geometry">
                        <mxPoint x="-70" y="1820" as="targetPoint"/>
                    </mxGeometry>
                </mxCell>
                <mxCell id="84" value="img 3.1" style="rounded=0;whiteSpace=wrap;html=1;fillColor=#dae8fc;strokeColor=#6c8ebf;" parent="1" vertex="1">
                    <mxGeometry x="-260" y="1810" width="70" height="20" as="geometry"/>
                </mxCell>
                <mxCell id="85" style="edgeStyle=none;html=1;" parent="1" source="86" edge="1">
                    <mxGeometry relative="1" as="geometry">
                        <mxPoint x="-70" y="1840" as="targetPoint"/>
                    </mxGeometry>
                </mxCell>
                <mxCell id="86" value="img 3.2" style="rounded=0;whiteSpace=wrap;html=1;fillColor=#dae8fc;strokeColor=#6c8ebf;" parent="1" vertex="1">
                    <mxGeometry x="-260" y="1830" width="70" height="20" as="geometry"/>
                </mxCell>
                <mxCell id="87" style="edgeStyle=none;html=1;" parent="1" source="88" edge="1">
                    <mxGeometry relative="1" as="geometry">
                        <mxPoint x="-70" y="1860" as="targetPoint"/>
                    </mxGeometry>
                </mxCell>
                <mxCell id="88" value="img 3.3" style="rounded=0;whiteSpace=wrap;html=1;fillColor=#dae8fc;strokeColor=#6c8ebf;" parent="1" vertex="1">
                    <mxGeometry x="-260" y="1850" width="70" height="20" as="geometry"/>
                </mxCell>
                <mxCell id="89" style="edgeStyle=none;html=1;" parent="1" source="90" edge="1">
                    <mxGeometry relative="1" as="geometry">
                        <mxPoint x="-70" y="1880" as="targetPoint"/>
                    </mxGeometry>
                </mxCell>
                <mxCell id="90" value="img 4.1" style="rounded=0;whiteSpace=wrap;html=1;fillColor=#dae8fc;strokeColor=#6c8ebf;" parent="1" vertex="1">
                    <mxGeometry x="-260" y="1870" width="70" height="20" as="geometry"/>
                </mxCell>
                <mxCell id="91" style="edgeStyle=none;html=1;" parent="1" source="92" edge="1">
                    <mxGeometry relative="1" as="geometry">
                        <mxPoint x="-70" y="1900" as="targetPoint"/>
                    </mxGeometry>
                </mxCell>
                <mxCell id="92" value="img 4.2" style="rounded=0;whiteSpace=wrap;html=1;fillColor=#dae8fc;strokeColor=#6c8ebf;" parent="1" vertex="1">
                    <mxGeometry x="-260" y="1890" width="70" height="20" as="geometry"/>
                </mxCell>
                <mxCell id="93" style="edgeStyle=none;html=1;" parent="1" source="94" edge="1">
                    <mxGeometry relative="1" as="geometry">
                        <mxPoint x="-70" y="1920" as="targetPoint"/>
                    </mxGeometry>
                </mxCell>
                <mxCell id="94" value="img 4.3" style="rounded=0;whiteSpace=wrap;html=1;fillColor=#dae8fc;strokeColor=#6c8ebf;" parent="1" vertex="1">
                    <mxGeometry x="-260" y="1910" width="70" height="20" as="geometry"/>
                </mxCell>
                <mxCell id="95" value="Species C" style="rounded=0;whiteSpace=wrap;html=1;horizontal=0;fillColor=#d80073;fontColor=#ffffff;strokeColor=#A50040;" parent="1" vertex="1">
                    <mxGeometry x="-350" y="1810" width="30" height="120" as="geometry"/>
                </mxCell>
                <mxCell id="96" value="CNN" style="rounded=0;whiteSpace=wrap;html=1;" parent="1" vertex="1">
                    <mxGeometry x="-150" y="1670" width="30" height="270" as="geometry"/>
                </mxCell>
                <mxCell id="97" style="edgeStyle=none;html=1;entryX=0.017;entryY=0.169;entryDx=0;entryDy=0;entryPerimeter=0;" parent="1" source="98" target="104" edge="1">
                    <mxGeometry relative="1" as="geometry"/>
                </mxCell>
                <mxCell id="98" value="embedding" style="rounded=0;whiteSpace=wrap;html=1;fillColor=#1ba1e2;strokeColor=#006EAF;fontColor=#ffffff;" parent="1" vertex="1">
                    <mxGeometry x="-70" y="1670" width="70" height="20" as="geometry"/>
                </mxCell>
                <mxCell id="99" style="edgeStyle=none;html=1;entryX=0;entryY=0.5;entryDx=0;entryDy=0;" parent="1" source="100" target="104" edge="1">
                    <mxGeometry relative="1" as="geometry"/>
                </mxCell>
                <mxCell id="100" value="embedding" style="rounded=0;whiteSpace=wrap;html=1;fillColor=#1ba1e2;strokeColor=#006EAF;fontColor=#ffffff;" parent="1" vertex="1">
                    <mxGeometry x="-70" y="1690" width="70" height="20" as="geometry"/>
                </mxCell>
                <mxCell id="101" style="edgeStyle=none;html=1;entryX=0.037;entryY=0.85;entryDx=0;entryDy=0;entryPerimeter=0;" parent="1" source="102" target="104" edge="1">
                    <mxGeometry relative="1" as="geometry"/>
                </mxCell>
                <mxCell id="102" value="embedding" style="rounded=0;whiteSpace=wrap;html=1;fillColor=#1ba1e2;strokeColor=#006EAF;fontColor=#ffffff;" parent="1" vertex="1">
                    <mxGeometry x="-70" y="1710" width="70" height="20" as="geometry"/>
                </mxCell>
                <mxCell id="103" style="edgeStyle=none;html=1;" parent="1" source="104" target="106" edge="1">
                    <mxGeometry relative="1" as="geometry">
                        <mxPoint x="90" y="1700" as="targetPoint"/>
                    </mxGeometry>
                </mxCell>
                <mxCell id="104" value="mean" style="rounded=0;whiteSpace=wrap;html=1;" parent="1" vertex="1">
                    <mxGeometry x="20" y="1670" width="40" height="60" as="geometry"/>
                </mxCell>
                <mxCell id="105" style="edgeStyle=none;html=1;entryX=0;entryY=0.5;entryDx=0;entryDy=0;" parent="1" source="106" target="138" edge="1">
                    <mxGeometry relative="1" as="geometry"/>
                </mxCell>
                <mxCell id="106" value="specimen 1 embedding" style="rounded=0;whiteSpace=wrap;html=1;fillColor=#d5e8d4;strokeColor=#82b366;" parent="1" vertex="1">
                    <mxGeometry x="80" y="1670" width="70" height="60" as="geometry"/>
                </mxCell>
                <mxCell id="107" style="edgeStyle=none;html=1;entryX=0.017;entryY=0.169;entryDx=0;entryDy=0;entryPerimeter=0;" parent="1" source="108" target="114" edge="1">
                    <mxGeometry relative="1" as="geometry"/>
                </mxCell>
                <mxCell id="108" value="embedding" style="rounded=0;whiteSpace=wrap;html=1;fillColor=#1ba1e2;strokeColor=#006EAF;fontColor=#ffffff;" parent="1" vertex="1">
                    <mxGeometry x="-70" y="1740" width="70" height="20" as="geometry"/>
                </mxCell>
                <mxCell id="109" style="edgeStyle=none;html=1;entryX=0;entryY=0.5;entryDx=0;entryDy=0;" parent="1" source="110" target="114" edge="1">
                    <mxGeometry relative="1" as="geometry"/>
                </mxCell>
                <mxCell id="110" value="embedding" style="rounded=0;whiteSpace=wrap;html=1;fillColor=#1ba1e2;strokeColor=#006EAF;fontColor=#ffffff;" parent="1" vertex="1">
                    <mxGeometry x="-70" y="1760" width="70" height="20" as="geometry"/>
                </mxCell>
                <mxCell id="111" style="edgeStyle=none;html=1;entryX=0.037;entryY=0.85;entryDx=0;entryDy=0;entryPerimeter=0;" parent="1" source="112" target="114" edge="1">
                    <mxGeometry relative="1" as="geometry"/>
                </mxCell>
                <mxCell id="112" value="embedding" style="rounded=0;whiteSpace=wrap;html=1;fillColor=#1ba1e2;strokeColor=#006EAF;fontColor=#ffffff;" parent="1" vertex="1">
                    <mxGeometry x="-70" y="1780" width="70" height="20" as="geometry"/>
                </mxCell>
                <mxCell id="113" style="edgeStyle=none;html=1;" parent="1" source="114" target="116" edge="1">
                    <mxGeometry relative="1" as="geometry">
                        <mxPoint x="90" y="1770" as="targetPoint"/>
                    </mxGeometry>
                </mxCell>
                <mxCell id="114" value="mean" style="rounded=0;whiteSpace=wrap;html=1;" parent="1" vertex="1">
                    <mxGeometry x="20" y="1740" width="40" height="60" as="geometry"/>
                </mxCell>
                <mxCell id="115" style="edgeStyle=none;html=1;entryX=0;entryY=0.5;entryDx=0;entryDy=0;" parent="1" source="116" target="208" edge="1">
                    <mxGeometry relative="1" as="geometry"/>
                </mxCell>
                <mxCell id="116" value="specimen 2 embedding" style="rounded=0;whiteSpace=wrap;html=1;fillColor=#ffe6cc;strokeColor=#d79b00;" parent="1" vertex="1">
                    <mxGeometry x="80" y="1740" width="70" height="60" as="geometry"/>
                </mxCell>
                <mxCell id="117" style="edgeStyle=none;html=1;entryX=0.017;entryY=0.169;entryDx=0;entryDy=0;entryPerimeter=0;" parent="1" source="118" target="124" edge="1">
                    <mxGeometry relative="1" as="geometry"/>
                </mxCell>
                <mxCell id="118" value="embedding" style="rounded=0;whiteSpace=wrap;html=1;fillColor=#1ba1e2;strokeColor=#006EAF;fontColor=#ffffff;" parent="1" vertex="1">
                    <mxGeometry x="-70" y="1810" width="70" height="20" as="geometry"/>
                </mxCell>
                <mxCell id="119" style="edgeStyle=none;html=1;entryX=0;entryY=0.5;entryDx=0;entryDy=0;" parent="1" source="120" target="124" edge="1">
                    <mxGeometry relative="1" as="geometry"/>
                </mxCell>
                <mxCell id="120" value="embedding" style="rounded=0;whiteSpace=wrap;html=1;fillColor=#1ba1e2;strokeColor=#006EAF;fontColor=#ffffff;" parent="1" vertex="1">
                    <mxGeometry x="-70" y="1830" width="70" height="20" as="geometry"/>
                </mxCell>
                <mxCell id="121" style="edgeStyle=none;html=1;entryX=0.037;entryY=0.85;entryDx=0;entryDy=0;entryPerimeter=0;" parent="1" source="122" target="124" edge="1">
                    <mxGeometry relative="1" as="geometry"/>
                </mxCell>
                <mxCell id="122" value="embedding" style="rounded=0;whiteSpace=wrap;html=1;fillColor=#1ba1e2;strokeColor=#006EAF;fontColor=#ffffff;" parent="1" vertex="1">
                    <mxGeometry x="-70" y="1850" width="70" height="20" as="geometry"/>
                </mxCell>
                <mxCell id="123" style="edgeStyle=none;html=1;" parent="1" source="124" target="126" edge="1">
                    <mxGeometry relative="1" as="geometry">
                        <mxPoint x="90" y="1840" as="targetPoint"/>
                    </mxGeometry>
                </mxCell>
                <mxCell id="124" value="mean" style="rounded=0;whiteSpace=wrap;html=1;" parent="1" vertex="1">
                    <mxGeometry x="20" y="1810" width="40" height="60" as="geometry"/>
                </mxCell>
                <mxCell id="125" style="edgeStyle=none;html=1;entryX=0;entryY=0.25;entryDx=0;entryDy=0;" parent="1" source="126" target="140" edge="1">
                    <mxGeometry relative="1" as="geometry"/>
                </mxCell>
                <mxCell id="126" value="specimen 3 embedding" style="rounded=0;whiteSpace=wrap;html=1;fillColor=#fff2cc;strokeColor=#d6b656;" parent="1" vertex="1">
                    <mxGeometry x="80" y="1810" width="70" height="60" as="geometry"/>
                </mxCell>
                <mxCell id="127" style="edgeStyle=none;html=1;entryX=0.017;entryY=0.169;entryDx=0;entryDy=0;entryPerimeter=0;" parent="1" source="128" target="134" edge="1">
                    <mxGeometry relative="1" as="geometry"/>
                </mxCell>
                <mxCell id="128" value="embedding" style="rounded=0;whiteSpace=wrap;html=1;fillColor=#1ba1e2;strokeColor=#006EAF;fontColor=#ffffff;" parent="1" vertex="1">
                    <mxGeometry x="-70" y="1870" width="70" height="20" as="geometry"/>
                </mxCell>
                <mxCell id="129" style="edgeStyle=none;html=1;entryX=0;entryY=0.5;entryDx=0;entryDy=0;" parent="1" source="130" target="134" edge="1">
                    <mxGeometry relative="1" as="geometry"/>
                </mxCell>
                <mxCell id="130" value="embedding" style="rounded=0;whiteSpace=wrap;html=1;fillColor=#1ba1e2;strokeColor=#006EAF;fontColor=#ffffff;" parent="1" vertex="1">
                    <mxGeometry x="-70" y="1890" width="70" height="20" as="geometry"/>
                </mxCell>
                <mxCell id="131" style="edgeStyle=none;html=1;entryX=0.037;entryY=0.85;entryDx=0;entryDy=0;entryPerimeter=0;" parent="1" source="132" target="134" edge="1">
                    <mxGeometry relative="1" as="geometry"/>
                </mxCell>
                <mxCell id="132" value="embedding" style="rounded=0;whiteSpace=wrap;html=1;fillColor=#1ba1e2;strokeColor=#006EAF;fontColor=#ffffff;" parent="1" vertex="1">
                    <mxGeometry x="-70" y="1910" width="70" height="20" as="geometry"/>
                </mxCell>
                <mxCell id="133" style="edgeStyle=none;html=1;" parent="1" source="134" target="136" edge="1">
                    <mxGeometry relative="1" as="geometry">
                        <mxPoint x="90" y="1900" as="targetPoint"/>
                    </mxGeometry>
                </mxCell>
                <mxCell id="134" value="mean" style="rounded=0;whiteSpace=wrap;html=1;" parent="1" vertex="1">
                    <mxGeometry x="20" y="1870" width="40" height="60" as="geometry"/>
                </mxCell>
                <mxCell id="135" style="edgeStyle=none;html=1;entryX=0;entryY=0.75;entryDx=0;entryDy=0;" parent="1" source="136" target="140" edge="1">
                    <mxGeometry relative="1" as="geometry"/>
                </mxCell>
                <mxCell id="136" value="specimen 4 embedding" style="rounded=0;whiteSpace=wrap;html=1;fillColor=#e1d5e7;strokeColor=#9673a6;" parent="1" vertex="1">
                    <mxGeometry x="80" y="1870" width="70" height="60" as="geometry"/>
                </mxCell>
                <mxCell id="137" style="edgeStyle=none;html=1;strokeColor=#080808;" parent="1" source="138" target="141" edge="1">
                    <mxGeometry relative="1" as="geometry"/>
                </mxCell>
                <mxCell id="138" value="mean" style="rounded=0;whiteSpace=wrap;html=1;" parent="1" vertex="1">
                    <mxGeometry x="170" y="1670" width="40" height="60" as="geometry"/>
                </mxCell>
                <mxCell id="139" style="edgeStyle=none;html=1;entryX=0;entryY=0.5;entryDx=0;entryDy=0;" parent="1" source="140" target="142" edge="1">
                    <mxGeometry relative="1" as="geometry"/>
                </mxCell>
                <mxCell id="140" value="mean" style="rounded=0;whiteSpace=wrap;html=1;" parent="1" vertex="1">
                    <mxGeometry x="170" y="1810" width="40" height="120" as="geometry"/>
                </mxCell>
                <mxCell id="141" value="Species A embedding" style="rounded=0;whiteSpace=wrap;html=1;horizontal=0;fillColor=#a20025;fontColor=#ffffff;strokeColor=#6F0000;" parent="1" vertex="1">
                    <mxGeometry x="240" y="1670" width="40" height="60" as="geometry"/>
                </mxCell>
                <mxCell id="142" value="Species C embedding" style="rounded=0;whiteSpace=wrap;html=1;horizontal=0;fillColor=#d80073;fontColor=#ffffff;strokeColor=#A50040;" parent="1" vertex="1">
                    <mxGeometry x="240" y="1810" width="40" height="120" as="geometry"/>
                </mxCell>
                <mxCell id="143" value="" style="endArrow=classic;html=1;fillColor=#ffe6cc;strokeColor=#d79b00;" parent="1" edge="1">
                    <mxGeometry width="50" height="50" relative="1" as="geometry">
                        <mxPoint x="-255" y="2060" as="sourcePoint"/>
                        <mxPoint x="-180" y="2040" as="targetPoint"/>
                    </mxGeometry>
                </mxCell>
                <mxCell id="144" value="" style="endArrow=classic;html=1;fillColor=#d5e8d4;strokeColor=#82b366;" parent="1" edge="1">
                    <mxGeometry width="50" height="50" relative="1" as="geometry">
                        <mxPoint x="-255" y="2060" as="sourcePoint"/>
                        <mxPoint x="-250" y="1990" as="targetPoint"/>
                    </mxGeometry>
                </mxCell>
                <mxCell id="145" value="$$||x||=1$$&amp;nbsp;" style="text;html=1;strokeColor=none;fillColor=none;align=center;verticalAlign=middle;whiteSpace=wrap;rounded=0;" parent="1" vertex="1">
                    <mxGeometry x="-275" y="2080" width="60" height="30" as="geometry"/>
                </mxCell>
                <mxCell id="146" value="Calculating the mean: assuming the vectors are of length 1, we can add them together and normalize the output vector to 1" style="text;html=1;strokeColor=none;fillColor=none;align=left;verticalAlign=middle;whiteSpace=wrap;rounded=0;" parent="1" vertex="1">
                    <mxGeometry x="-150" y="2000" width="195" height="90" as="geometry"/>
                </mxCell>
                <mxCell id="147" value="" style="endArrow=classic;html=1;fillColor=#d5e8d4;strokeColor=#82b366;" parent="1" edge="1">
                    <mxGeometry width="50" height="50" relative="1" as="geometry">
                        <mxPoint x="-185" y="2040" as="sourcePoint"/>
                        <mxPoint x="-180" y="1980" as="targetPoint"/>
                    </mxGeometry>
                </mxCell>
                <mxCell id="148" value="" style="endArrow=classic;html=1;fillColor=#a20025;strokeColor=#CCCCCC;" parent="1" edge="1">
                    <mxGeometry width="50" height="50" relative="1" as="geometry">
                        <mxPoint x="-255" y="2060" as="sourcePoint"/>
                        <mxPoint x="-180" y="1980" as="targetPoint"/>
                    </mxGeometry>
                </mxCell>
                <mxCell id="149" value="" style="endArrow=classic;html=1;fillColor=#a20025;strokeColor=#6F0000;" parent="1" edge="1">
                    <mxGeometry width="50" height="50" relative="1" as="geometry">
                        <mxPoint x="-255" y="2060" as="sourcePoint"/>
                        <mxPoint x="-209" y="2010" as="targetPoint"/>
                    </mxGeometry>
                </mxCell>
                <mxCell id="150" value="5: Each specimen is compared to the species embedding learned from training data using the cosine distance" style="text;html=1;strokeColor=none;fillColor=none;align=left;verticalAlign=middle;whiteSpace=wrap;rounded=0;" parent="1" vertex="1">
                    <mxGeometry x="390" y="1560" width="320" height="75" as="geometry"/>
                </mxCell>
                <mxCell id="259" style="edgeStyle=none;html=1;exitX=1;exitY=0.75;exitDx=0;exitDy=0;entryX=0;entryY=0.75;entryDx=0;entryDy=0;startArrow=classic;startFill=1;" parent="1" source="156" target="161" edge="1">
                    <mxGeometry relative="1" as="geometry"/>
                </mxCell>
                <mxCell id="266" style="edgeStyle=none;html=1;exitX=1;exitY=0.25;exitDx=0;exitDy=0;entryX=0;entryY=0.75;entryDx=0;entryDy=0;startArrow=classic;startFill=1;" parent="1" source="156" target="216" edge="1">
                    <mxGeometry relative="1" as="geometry"/>
                </mxCell>
                <mxCell id="267" style="edgeStyle=none;html=1;exitX=1;exitY=0.5;exitDx=0;exitDy=0;entryX=0;entryY=0.75;entryDx=0;entryDy=0;startArrow=classic;startFill=1;" parent="1" source="156" target="221" edge="1">
                    <mxGeometry relative="1" as="geometry"/>
                </mxCell>
                <mxCell id="156" value="specimen 4 embedding" style="rounded=0;whiteSpace=wrap;html=1;fillColor=#e1d5e7;strokeColor=#9673a6;" parent="1" vertex="1">
                    <mxGeometry x="420" y="1855" width="70" height="60" as="geometry"/>
                </mxCell>
                <mxCell id="161" value="Species C&amp;nbsp;embedding" style="rounded=0;whiteSpace=wrap;html=1;horizontal=0;fillColor=#d80073;fontColor=#ffffff;strokeColor=#A50040;" parent="1" vertex="1">
                    <mxGeometry x="620" y="1815" width="40" height="70" as="geometry"/>
                </mxCell>
                <mxCell id="163" value="6: We can similarily calculate a distance between the found DNA sequences&amp;nbsp;" style="text;html=1;strokeColor=none;fillColor=none;align=left;verticalAlign=middle;whiteSpace=wrap;rounded=0;" parent="1" vertex="1">
                    <mxGeometry x="930" y="1490" width="195" height="90" as="geometry"/>
                </mxCell>
                <mxCell id="164" value="0.99" style="rounded=0;whiteSpace=wrap;html=1;" parent="1" vertex="1">
                    <mxGeometry x="490" y="1960" width="40" height="40" as="geometry"/>
                </mxCell>
                <mxCell id="165" value="0.1" style="rounded=0;whiteSpace=wrap;html=1;" parent="1" vertex="1">
                    <mxGeometry x="530" y="1960" width="40" height="40" as="geometry"/>
                </mxCell>
                <mxCell id="166" value="0.01" style="rounded=0;whiteSpace=wrap;html=1;" parent="1" vertex="1">
                    <mxGeometry x="570" y="1960" width="40" height="40" as="geometry"/>
                </mxCell>
                <mxCell id="167" value="A" style="text;html=1;strokeColor=none;fillColor=none;align=center;verticalAlign=middle;whiteSpace=wrap;rounded=0;" parent="1" vertex="1">
                    <mxGeometry x="490" y="1920" width="40" height="40" as="geometry"/>
                </mxCell>
                <mxCell id="168" value="B" style="text;html=1;strokeColor=none;fillColor=none;align=center;verticalAlign=middle;whiteSpace=wrap;rounded=0;" parent="1" vertex="1">
                    <mxGeometry x="530" y="1920" width="40" height="40" as="geometry"/>
                </mxCell>
                <mxCell id="169" value="C" style="text;html=1;strokeColor=none;fillColor=none;align=center;verticalAlign=middle;whiteSpace=wrap;rounded=0;" parent="1" vertex="1">
                    <mxGeometry x="570" y="1920" width="40" height="40" as="geometry"/>
                </mxCell>
                <mxCell id="170" value="1" style="text;html=1;strokeColor=none;fillColor=none;align=center;verticalAlign=middle;whiteSpace=wrap;rounded=0;" parent="1" vertex="1">
                    <mxGeometry x="450" y="1960" width="40" height="40" as="geometry"/>
                </mxCell>
                <mxCell id="171" value="0.3" style="rounded=0;whiteSpace=wrap;html=1;" parent="1" vertex="1">
                    <mxGeometry x="490" y="2000" width="40" height="40" as="geometry"/>
                </mxCell>
                <mxCell id="172" value="0.1" style="rounded=0;whiteSpace=wrap;html=1;" parent="1" vertex="1">
                    <mxGeometry x="570" y="2000" width="40" height="40" as="geometry"/>
                </mxCell>
                <mxCell id="173" value="2" style="text;html=1;strokeColor=none;fillColor=none;align=center;verticalAlign=middle;whiteSpace=wrap;rounded=0;" parent="1" vertex="1">
                    <mxGeometry x="450" y="2000" width="40" height="40" as="geometry"/>
                </mxCell>
                <mxCell id="174" value="0.2" style="rounded=0;whiteSpace=wrap;html=1;" parent="1" vertex="1">
                    <mxGeometry x="490" y="2040" width="40" height="40" as="geometry"/>
                </mxCell>
                <mxCell id="175" value="0.1" style="rounded=0;whiteSpace=wrap;html=1;" parent="1" vertex="1">
                    <mxGeometry x="530" y="2040" width="40" height="40" as="geometry"/>
                </mxCell>
                <mxCell id="176" value="0.9" style="rounded=0;whiteSpace=wrap;html=1;" parent="1" vertex="1">
                    <mxGeometry x="570" y="2040" width="40" height="40" as="geometry"/>
                </mxCell>
                <mxCell id="177" value="3" style="text;html=1;strokeColor=none;fillColor=none;align=center;verticalAlign=middle;whiteSpace=wrap;rounded=0;" parent="1" vertex="1">
                    <mxGeometry x="450" y="2040" width="40" height="40" as="geometry"/>
                </mxCell>
                <mxCell id="178" value="0.2" style="rounded=0;whiteSpace=wrap;html=1;fillColor=#f8cecc;strokeColor=#b85450;" parent="1" vertex="1">
                    <mxGeometry x="490" y="2080" width="40" height="40" as="geometry"/>
                </mxCell>
                <mxCell id="179" value="0.3" style="rounded=0;whiteSpace=wrap;html=1;fillColor=#f8cecc;strokeColor=#b85450;" parent="1" vertex="1">
                    <mxGeometry x="530" y="2080" width="40" height="40" as="geometry"/>
                </mxCell>
                <mxCell id="180" value="0.1" style="rounded=0;whiteSpace=wrap;html=1;fillColor=#f8cecc;strokeColor=#b85450;" parent="1" vertex="1">
                    <mxGeometry x="570" y="2080" width="40" height="40" as="geometry"/>
                </mxCell>
                <mxCell id="181" value="4" style="text;html=1;strokeColor=none;fillColor=none;align=center;verticalAlign=middle;whiteSpace=wrap;rounded=0;" parent="1" vertex="1">
                    <mxGeometry x="450" y="2080" width="40" height="40" as="geometry"/>
                </mxCell>
                <mxCell id="182" value="0.99" style="rounded=0;whiteSpace=wrap;html=1;" parent="1" vertex="1">
                    <mxGeometry x="530" y="2000" width="40" height="40" as="geometry"/>
                </mxCell>
                <mxCell id="183" value="0" style="rounded=0;whiteSpace=wrap;html=1;fillColor=#f5f5f5;fontColor=#333333;strokeColor=#666666;" parent="1" vertex="1">
                    <mxGeometry x="960" y="1620" width="40" height="40" as="geometry"/>
                </mxCell>
                <mxCell id="184" value="" style="rounded=0;whiteSpace=wrap;html=1;fillColor=#f5f5f5;fontColor=#333333;strokeColor=#666666;" parent="1" vertex="1">
                    <mxGeometry x="1000" y="1620" width="40" height="40" as="geometry"/>
                </mxCell>
                <mxCell id="185" value="" style="rounded=0;whiteSpace=wrap;html=1;fillColor=#f5f5f5;fontColor=#333333;strokeColor=#666666;" parent="1" vertex="1">
                    <mxGeometry x="1040" y="1620" width="40" height="40" as="geometry"/>
                </mxCell>
                <mxCell id="186" value="" style="rounded=0;whiteSpace=wrap;html=1;fillColor=#f5f5f5;fontColor=#333333;strokeColor=#666666;" parent="1" vertex="1">
                    <mxGeometry x="1080" y="1620" width="40" height="40" as="geometry"/>
                </mxCell>
                <mxCell id="187" value="0.5" style="rounded=0;whiteSpace=wrap;html=1;" parent="1" vertex="1">
                    <mxGeometry x="960" y="1660" width="40" height="40" as="geometry"/>
                </mxCell>
                <mxCell id="188" value="0" style="rounded=0;whiteSpace=wrap;html=1;fillColor=#f5f5f5;fontColor=#333333;strokeColor=#666666;" parent="1" vertex="1">
                    <mxGeometry x="1000" y="1660" width="40" height="40" as="geometry"/>
                </mxCell>
                <mxCell id="189" value="" style="rounded=0;whiteSpace=wrap;html=1;fillColor=#f5f5f5;fontColor=#333333;strokeColor=#666666;" parent="1" vertex="1">
                    <mxGeometry x="1040" y="1660" width="40" height="40" as="geometry"/>
                </mxCell>
                <mxCell id="190" value="" style="rounded=0;whiteSpace=wrap;html=1;fillColor=#f5f5f5;fontColor=#333333;strokeColor=#666666;" parent="1" vertex="1">
                    <mxGeometry x="1080" y="1660" width="40" height="40" as="geometry"/>
                </mxCell>
                <mxCell id="191" value="0.7" style="rounded=0;whiteSpace=wrap;html=1;" parent="1" vertex="1">
                    <mxGeometry x="960" y="1700" width="40" height="40" as="geometry"/>
                </mxCell>
                <mxCell id="192" value="0.8" style="rounded=0;whiteSpace=wrap;html=1;" parent="1" vertex="1">
                    <mxGeometry x="1000" y="1700" width="40" height="40" as="geometry"/>
                </mxCell>
                <mxCell id="193" value="0" style="rounded=0;whiteSpace=wrap;html=1;fillColor=#f5f5f5;fontColor=#333333;strokeColor=#666666;" parent="1" vertex="1">
                    <mxGeometry x="1040" y="1700" width="40" height="40" as="geometry"/>
                </mxCell>
                <mxCell id="194" value="" style="rounded=0;whiteSpace=wrap;html=1;fillColor=#f5f5f5;fontColor=#333333;strokeColor=#666666;" parent="1" vertex="1">
                    <mxGeometry x="1080" y="1700" width="40" height="40" as="geometry"/>
                </mxCell>
                <mxCell id="195" value="0.8" style="rounded=0;whiteSpace=wrap;html=1;" parent="1" vertex="1">
                    <mxGeometry x="960" y="1740" width="40" height="40" as="geometry"/>
                </mxCell>
                <mxCell id="196" value="0.7" style="rounded=0;whiteSpace=wrap;html=1;" parent="1" vertex="1">
                    <mxGeometry x="1000" y="1740" width="40" height="40" as="geometry"/>
                </mxCell>
                <mxCell id="197" value="0.1" style="rounded=0;whiteSpace=wrap;html=1;" parent="1" vertex="1">
                    <mxGeometry x="1040" y="1740" width="40" height="40" as="geometry"/>
                </mxCell>
                <mxCell id="198" value="0" style="rounded=0;whiteSpace=wrap;html=1;fillColor=#f5f5f5;fontColor=#333333;strokeColor=#666666;" parent="1" vertex="1">
                    <mxGeometry x="1080" y="1740" width="40" height="40" as="geometry"/>
                </mxCell>
                <mxCell id="199" value="A" style="text;html=1;strokeColor=none;fillColor=none;align=center;verticalAlign=middle;whiteSpace=wrap;rounded=0;" parent="1" vertex="1">
                    <mxGeometry x="960" y="1580" width="40" height="40" as="geometry"/>
                </mxCell>
                <mxCell id="200" value="B" style="text;html=1;strokeColor=none;fillColor=none;align=center;verticalAlign=middle;whiteSpace=wrap;rounded=0;" parent="1" vertex="1">
                    <mxGeometry x="1000" y="1580" width="40" height="40" as="geometry"/>
                </mxCell>
                <mxCell id="201" value="C" style="text;html=1;strokeColor=none;fillColor=none;align=center;verticalAlign=middle;whiteSpace=wrap;rounded=0;" parent="1" vertex="1">
                    <mxGeometry x="1040" y="1580" width="40" height="40" as="geometry"/>
                </mxCell>
                <mxCell id="202" value="D" style="text;html=1;strokeColor=none;fillColor=none;align=center;verticalAlign=middle;whiteSpace=wrap;rounded=0;" parent="1" vertex="1">
                    <mxGeometry x="1080" y="1580" width="40" height="40" as="geometry"/>
                </mxCell>
                <mxCell id="203" value="A" style="text;html=1;strokeColor=none;fillColor=none;align=center;verticalAlign=middle;whiteSpace=wrap;rounded=0;" parent="1" vertex="1">
                    <mxGeometry x="920" y="1620" width="40" height="40" as="geometry"/>
                </mxCell>
                <mxCell id="204" value="B" style="text;html=1;strokeColor=none;fillColor=none;align=center;verticalAlign=middle;whiteSpace=wrap;rounded=0;" parent="1" vertex="1">
                    <mxGeometry x="920" y="1660" width="40" height="40" as="geometry"/>
                </mxCell>
                <mxCell id="205" value="C" style="text;html=1;strokeColor=none;fillColor=none;align=center;verticalAlign=middle;whiteSpace=wrap;rounded=0;" parent="1" vertex="1">
                    <mxGeometry x="920" y="1700" width="40" height="40" as="geometry"/>
                </mxCell>
                <mxCell id="206" value="D" style="text;html=1;strokeColor=none;fillColor=none;align=center;verticalAlign=middle;whiteSpace=wrap;rounded=0;" parent="1" vertex="1">
                    <mxGeometry x="920" y="1740" width="40" height="40" as="geometry"/>
                </mxCell>
                <mxCell id="207" style="edgeStyle=none;html=1;strokeColor=#080808;" parent="1" source="208" target="209" edge="1">
                    <mxGeometry relative="1" as="geometry"/>
                </mxCell>
                <mxCell id="208" value="mean" style="rounded=0;whiteSpace=wrap;html=1;" parent="1" vertex="1">
                    <mxGeometry x="170" y="1740" width="40" height="60" as="geometry"/>
                </mxCell>
                <mxCell id="209" value="Species B embedding" style="rounded=0;whiteSpace=wrap;html=1;horizontal=0;fillColor=#008a00;fontColor=#ffffff;strokeColor=#005700;" parent="1" vertex="1">
                    <mxGeometry x="240" y="1740" width="40" height="60" as="geometry"/>
                </mxCell>
                <mxCell id="210" value="Species B" style="rounded=0;whiteSpace=wrap;html=1;horizontal=0;fillColor=#008a00;fontColor=#ffffff;strokeColor=#005700;" parent="1" vertex="1">
                    <mxGeometry x="-350" y="1740" width="30" height="60" as="geometry"/>
                </mxCell>
                <mxCell id="216" value="Species A embedding" style="rounded=0;whiteSpace=wrap;html=1;horizontal=0;fillColor=#a20025;fontColor=#ffffff;strokeColor=#6F0000;" parent="1" vertex="1">
                    <mxGeometry x="620" y="1680" width="40" height="60" as="geometry"/>
                </mxCell>
                <mxCell id="221" value="Species B embedding" style="rounded=0;whiteSpace=wrap;html=1;horizontal=0;fillColor=#008a00;fontColor=#ffffff;strokeColor=#005700;" parent="1" vertex="1">
                    <mxGeometry x="620" y="1750" width="40" height="60" as="geometry"/>
                </mxCell>
                <mxCell id="222" value="We could also maybe calculate entropy here even though it's not a distribution? Maybe after softmax? Or a euclidean distance??" style="text;html=1;strokeColor=none;fillColor=none;align=center;verticalAlign=middle;whiteSpace=wrap;rounded=0;" parent="1" vertex="1">
                    <mxGeometry x="662.5" y="1985" width="95" height="105" as="geometry"/>
                </mxCell>
                <mxCell id="223" value="1" style="ellipse;whiteSpace=wrap;html=1;aspect=fixed;fillColor=#d5e8d4;strokeColor=#82b366;" parent="1" vertex="1">
                    <mxGeometry x="1245" y="1820" width="15" height="15" as="geometry"/>
                </mxCell>
                <mxCell id="224" value="2" style="ellipse;whiteSpace=wrap;html=1;aspect=fixed;fillColor=#ffe6cc;strokeColor=#d79b00;" parent="1" vertex="1">
                    <mxGeometry x="1280" y="1897" width="15" height="15" as="geometry"/>
                </mxCell>
                <mxCell id="225" value="3" style="ellipse;whiteSpace=wrap;html=1;aspect=fixed;fillColor=#fff2cc;strokeColor=#d6b656;" parent="1" vertex="1">
                    <mxGeometry x="1196" y="1875" width="15" height="15" as="geometry"/>
                </mxCell>
                <mxCell id="226" value="4" style="ellipse;whiteSpace=wrap;html=1;aspect=fixed;fillColor=#e1d5e7;strokeColor=#9673a6;" parent="1" vertex="1">
                    <mxGeometry x="1201" y="1912.5" width="15" height="15" as="geometry"/>
                </mxCell>
                <mxCell id="228" value="A" style="ellipse;whiteSpace=wrap;html=1;aspect=fixed;fillColor=#a20025;strokeColor=#6F0000;fontColor=#ffffff;" parent="1" vertex="1">
                    <mxGeometry x="1260" y="1691" width="15" height="15" as="geometry"/>
                </mxCell>
                <mxCell id="229" value="B" style="ellipse;whiteSpace=wrap;html=1;aspect=fixed;fillColor=#008a00;strokeColor=#005700;fontColor=#ffffff;" parent="1" vertex="1">
                    <mxGeometry x="1210" y="1715" width="15" height="15" as="geometry"/>
                </mxCell>
                <mxCell id="230" value="C" style="ellipse;whiteSpace=wrap;html=1;aspect=fixed;fillColor=#d80073;strokeColor=#A50040;fontColor=#ffffff;" parent="1" vertex="1">
                    <mxGeometry x="1216" y="1636" width="15" height="15" as="geometry"/>
                </mxCell>
                <mxCell id="231" value="D" style="ellipse;whiteSpace=wrap;html=1;aspect=fixed;dashed=1;dashPattern=1 1;fillColor=#f8cecc;strokeColor=#b85450;" parent="1" vertex="1">
                    <mxGeometry x="1196" y="1651" width="15" height="15" as="geometry"/>
                </mxCell>
                <mxCell id="235" value="6b: And calculate the MDS coordinates (PCoA) in the DNA space. This space can be then compared to the image space, and&amp;nbsp;" style="text;html=1;strokeColor=none;fillColor=none;align=left;verticalAlign=middle;whiteSpace=wrap;rounded=0;" parent="1" vertex="1">
                    <mxGeometry x="1170" y="1500" width="195" height="90" as="geometry"/>
                </mxCell>
                <mxCell id="236" value="" style="endArrow=classic;html=1;" parent="1" edge="1">
                    <mxGeometry width="50" height="50" relative="1" as="geometry">
                        <mxPoint x="1175" y="1749.76" as="sourcePoint"/>
                        <mxPoint x="1310" y="1749.76" as="targetPoint"/>
                    </mxGeometry>
                </mxCell>
                <mxCell id="237" value="" style="endArrow=classic;html=1;" parent="1" edge="1">
                    <mxGeometry width="50" height="50" relative="1" as="geometry">
                        <mxPoint x="1175" y="1749.76" as="sourcePoint"/>
                        <mxPoint x="1175" y="1620" as="targetPoint"/>
                    </mxGeometry>
                </mxCell>
                <mxCell id="238" value="A" style="ellipse;whiteSpace=wrap;html=1;aspect=fixed;fillColor=#a20025;strokeColor=#6F0000;fontColor=#ffffff;" parent="1" vertex="1">
                    <mxGeometry x="1257" y="1826" width="15" height="15" as="geometry"/>
                </mxCell>
                <mxCell id="239" value="B" style="ellipse;whiteSpace=wrap;html=1;aspect=fixed;fillColor=#008a00;strokeColor=#005700;fontColor=#ffffff;" parent="1" vertex="1">
                    <mxGeometry x="1292" y="1900" width="15" height="15" as="geometry"/>
                </mxCell>
                <mxCell id="240" value="C" style="ellipse;whiteSpace=wrap;html=1;aspect=fixed;fillColor=#d80073;strokeColor=#A50040;fontColor=#ffffff;" parent="1" vertex="1">
                    <mxGeometry x="1203" y="1867.5" width="15" height="15" as="geometry"/>
                </mxCell>
                <mxCell id="246" value="" style="endArrow=classic;html=1;" parent="1" edge="1">
                    <mxGeometry width="50" height="50" relative="1" as="geometry">
                        <mxPoint x="1180" y="1944.54" as="sourcePoint"/>
                        <mxPoint x="1315" y="1944.54" as="targetPoint"/>
                    </mxGeometry>
                </mxCell>
                <mxCell id="247" value="" style="endArrow=classic;html=1;" parent="1" edge="1">
                    <mxGeometry width="50" height="50" relative="1" as="geometry">
                        <mxPoint x="1180" y="1944.54" as="sourcePoint"/>
                        <mxPoint x="1180" y="1814.78" as="targetPoint"/>
                    </mxGeometry>
                </mxCell>
                <mxCell id="248" value="DNA space" style="text;html=1;strokeColor=none;fillColor=none;align=center;verticalAlign=middle;whiteSpace=wrap;rounded=0;dashed=1;dashPattern=1 1;" parent="1" vertex="1">
                    <mxGeometry x="1320" y="1660" width="60" height="30" as="geometry"/>
                </mxCell>
                <mxCell id="251" value="Image space" style="text;html=1;strokeColor=none;fillColor=none;align=center;verticalAlign=middle;whiteSpace=wrap;rounded=0;dashed=1;dashPattern=1 1;" parent="1" vertex="1">
                    <mxGeometry x="1330" y="1860" width="60" height="30" as="geometry"/>
                </mxCell>
                <mxCell id="262" style="edgeStyle=none;html=1;exitX=1;exitY=0.75;exitDx=0;exitDy=0;entryX=0;entryY=0;entryDx=0;entryDy=0;" parent="1" source="253" target="161" edge="1">
                    <mxGeometry relative="1" as="geometry"/>
                </mxCell>
                <mxCell id="263" style="edgeStyle=none;html=1;exitX=1;exitY=0.25;exitDx=0;exitDy=0;entryX=0;entryY=0;entryDx=0;entryDy=0;startArrow=classic;startFill=1;" parent="1" source="253" target="216" edge="1">
                    <mxGeometry relative="1" as="geometry"/>
                </mxCell>
                <mxCell id="270" style="edgeStyle=none;html=1;exitX=1;exitY=0.5;exitDx=0;exitDy=0;entryX=0;entryY=0;entryDx=0;entryDy=0;" parent="1" source="253" target="221" edge="1">
                    <mxGeometry relative="1" as="geometry"/>
                </mxCell>
                <mxCell id="253" value="specimen 1 embedding" style="rounded=0;whiteSpace=wrap;html=1;fillColor=#d5e8d4;strokeColor=#82b366;" parent="1" vertex="1">
                    <mxGeometry x="420" y="1650" width="70" height="60" as="geometry"/>
                </mxCell>
                <mxCell id="261" style="edgeStyle=none;html=1;exitX=1;exitY=0.75;exitDx=0;exitDy=0;entryX=0;entryY=0.25;entryDx=0;entryDy=0;" parent="1" source="255" target="161" edge="1">
                    <mxGeometry relative="1" as="geometry"/>
                </mxCell>
                <mxCell id="269" style="edgeStyle=none;html=1;exitX=1;exitY=0.5;exitDx=0;exitDy=0;entryX=0;entryY=0.25;entryDx=0;entryDy=0;" parent="1" source="255" target="221" edge="1">
                    <mxGeometry relative="1" as="geometry"/>
                </mxCell>
                <mxCell id="255" value="specimen 2 embedding" style="rounded=0;whiteSpace=wrap;html=1;fillColor=#ffe6cc;strokeColor=#d79b00;" parent="1" vertex="1">
                    <mxGeometry x="420" y="1720" width="70" height="60" as="geometry"/>
                </mxCell>
                <mxCell id="260" style="edgeStyle=none;html=1;exitX=1;exitY=0.75;exitDx=0;exitDy=0;entryX=0;entryY=0.5;entryDx=0;entryDy=0;startArrow=classic;startFill=1;" parent="1" source="257" target="161" edge="1">
                    <mxGeometry relative="1" as="geometry"/>
                </mxCell>
                <mxCell id="268" style="edgeStyle=none;html=1;exitX=1;exitY=0.5;exitDx=0;exitDy=0;entryX=0;entryY=0.5;entryDx=0;entryDy=0;" parent="1" source="257" target="221" edge="1">
                    <mxGeometry relative="1" as="geometry"/>
                </mxCell>
                <mxCell id="257" value="specimen 3 embedding" style="rounded=0;whiteSpace=wrap;html=1;fillColor=#fff2cc;strokeColor=#d6b656;" parent="1" vertex="1">
                    <mxGeometry x="420" y="1790" width="70" height="60" as="geometry"/>
                </mxCell>
                <mxCell id="271" style="edgeStyle=none;html=1;exitX=1;exitY=0.5;exitDx=0;exitDy=0;entryX=0;entryY=0;entryDx=0;entryDy=0;startArrow=classic;startFill=1;" parent="1" edge="1">
                    <mxGeometry relative="1" as="geometry">
                        <mxPoint x="490" y="1680" as="sourcePoint"/>
                        <mxPoint x="620" y="1750" as="targetPoint"/>
                    </mxGeometry>
                </mxCell>
                <mxCell id="272" style="edgeStyle=none;html=1;exitX=1;exitY=0.75;exitDx=0;exitDy=0;entryX=0;entryY=0;entryDx=0;entryDy=0;startArrow=classic;startFill=1;" parent="1" edge="1">
                    <mxGeometry relative="1" as="geometry">
                        <mxPoint x="490" y="1695" as="sourcePoint"/>
                        <mxPoint x="620" y="1815" as="targetPoint"/>
                    </mxGeometry>
                </mxCell>
                <mxCell id="273" style="edgeStyle=none;html=1;exitX=1;exitY=0.25;exitDx=0;exitDy=0;entryX=0;entryY=0.25;entryDx=0;entryDy=0;startArrow=classic;startFill=1;" parent="1" source="255" edge="1">
                    <mxGeometry relative="1" as="geometry">
                        <mxPoint x="490" y="1720" as="sourcePoint"/>
                        <mxPoint x="620" y="1695" as="targetPoint"/>
                    </mxGeometry>
                </mxCell>
                <mxCell id="274" style="edgeStyle=none;html=1;exitX=1;exitY=0.5;exitDx=0;exitDy=0;entryX=0;entryY=0.25;entryDx=0;entryDy=0;startArrow=classic;startFill=1;" parent="1" edge="1">
                    <mxGeometry relative="1" as="geometry">
                        <mxPoint x="490" y="1750" as="sourcePoint"/>
                        <mxPoint x="620" y="1765" as="targetPoint"/>
                    </mxGeometry>
                </mxCell>
                <mxCell id="275" style="edgeStyle=none;html=1;exitX=1;exitY=0.75;exitDx=0;exitDy=0;entryX=0;entryY=0.25;entryDx=0;entryDy=0;startArrow=classic;startFill=1;" parent="1" edge="1">
                    <mxGeometry relative="1" as="geometry">
                        <mxPoint x="490" y="1765" as="sourcePoint"/>
                        <mxPoint x="620" y="1832.5" as="targetPoint"/>
                    </mxGeometry>
                </mxCell>
                <mxCell id="276" style="edgeStyle=none;html=1;exitX=1;exitY=0.25;exitDx=0;exitDy=0;entryX=0;entryY=0.5;entryDx=0;entryDy=0;startArrow=classic;startFill=1;" parent="1" source="257" edge="1">
                    <mxGeometry relative="1" as="geometry">
                        <mxPoint x="490" y="1790" as="sourcePoint"/>
                        <mxPoint x="620" y="1710" as="targetPoint"/>
                    </mxGeometry>
                </mxCell>
                <mxCell id="277" style="edgeStyle=none;html=1;exitX=1;exitY=0.5;exitDx=0;exitDy=0;entryX=0;entryY=0.5;entryDx=0;entryDy=0;startArrow=classic;startFill=1;" parent="1" edge="1">
                    <mxGeometry relative="1" as="geometry">
                        <mxPoint x="490" y="1820" as="sourcePoint"/>
                        <mxPoint x="620" y="1780" as="targetPoint"/>
                    </mxGeometry>
                </mxCell>
                <mxCell id="279" style="edgeStyle=none;html=1;entryX=0.5;entryY=1;entryDx=0;entryDy=0;" parent="1" source="278" target="226" edge="1">
                    <mxGeometry relative="1" as="geometry">
                        <mxPoint x="1223.5" y="1935" as="targetPoint"/>
                    </mxGeometry>
                </mxCell>
                <mxCell id="278" value="We want to identify that this specimen vector corresponds to DNA species D" style="text;html=1;strokeColor=none;fillColor=none;align=center;verticalAlign=middle;whiteSpace=wrap;rounded=0;dashed=1;dashPattern=1 1;" parent="1" vertex="1">
                    <mxGeometry x="1150.5" y="2010" width="179.5" height="30" as="geometry"/>
                </mxCell>
            </root>
        </mxGraphModel>
    </diagram>
</mxfile>